FFmpeg version SVN-r25716, Copyright (c) 2000-2010 the FFmpeg developers  built on Nov 10 2010 12:23:18 with gcc 4.1.2 20080704 (Red Hat 4.1.2-48)  configuration: --enable-libmp3lame --enable-shared --disable-mmx --arch=x86_64  libavutil     50.33. 0 / 50.33. 0  libavcore      0.12. 1 /  0.12. 1  libavcodec    52.94. 4 / 52.94. 4  libavformat   52.84. 0 / 52.84. 0  libavdevice   52. 2. 2 / 52. 2. 2  libavfilter    1.59. 0 /  1.59. 0  libswscale     0.12. 0 /  0.12. 0Seems stream 0 codec frame rate differs from container frame rate: 1800.00 (1800/1) -> 7.50 (15/2)Input #0, mov,mp4,m4a,3gp,3g2,mj2, from '/RAID10/data/converted_video_files/40268.mov':  Duration: 00:00:08.26, start: 0.000000, bitrate: 10848 kb/s    Stream #0.0(eng): Video: qtrle, rgb24, 229x311, 10847 kb/s, 7.50 fps, 7.50 tbr, 1800 tbn, 1800 tbc[buffer @ 0xc08e650] w:229 h:311 pixfmt:rgb24[ffsink @ 0xc0916e0] auto-inserting filter 'auto-inserted scaler 0' between the filter 'src' and the filter 'out'[scale @ 0xc092bc0] w:229 h:311 fmt:rgb24 -> w:229 h:311 fmt:yuv420p flags:0x4Output #0, flv, to '/RAID10/data/converted_video_files/40268.flv':  Metadata:    encoder         : Lavf52.84.0    Stream #0.0(eng): Video: flv, yuv420p, 229x311, q=2-31, 600 kb/s, 1k tbn, 24 tbcStream mapping:  Stream #0.0 -> #0.0Press [q] to stop encodingframe=   62 fps=  0 q=7.4 Lsize=     414kB time=8.17 bitrate= 414.9kbits/s    video:412kB audio:0kB global headers:0kB muxing overhead 0.284640%